<svg xmlns="http://www.w3.org/2000/svg" width="605" height="515.677" viewBox="0 0 605 515.677">
  <g id="Group_3598" data-name="Group 3598" transform="translate(-820 -374.323)">
    <g id="illustration" transform="translate(899 399.212)">
      <path id="Path_701" data-name="Path 701" d="M796.426,654.666v1.42c-.084,16.51-2.869,29.391-8.332,38.461-.077.134-.162.26-.239.394l-.612-.373-.584-.366c6.061-9.795,8.206-23.639,8.283-38.04.007-.464.014-.935.007-1.406-.021-6.1-.394-12.263-.991-18.253-.042-.464-.091-.935-.141-1.406-.83-7.9-2.025-15.455-3.248-22.015-.084-.464-.176-.928-.267-1.385-2.116-11.1-4.275-19.132-4.767-20.911-.056-.218-.091-.338-.1-.366l.668-.19.007-.007.675-.19c.007.028.127.429.323,1.174.752,2.784,2.707,10.343,4.627,20.314.084.45.176.914.26,1.378,1,5.323,1.976,11.271,2.749,17.515q.3,2.352.527,4.641c.056.471.105.942.148,1.406Q796.391,646.176,796.426,654.666Z" transform="translate(-458.462 -286.783)" fill="#fff"/>
      <path id="Path_702" data-name="Path 702" d="M784.852,619.2c-.471.063-.949.127-1.434.176a38.783,38.783,0,0,1-3.966.2,37.732,37.732,0,0,1-16.313-3.684c-.3.373-.591.745-.893,1.125a39.13,39.13,0,0,0,17.206,3.966,40.14,40.14,0,0,0,4.233-.225c.478-.049.956-.112,1.427-.183a38.8,38.8,0,0,0,11.215-3.4q-.454-.58-.886-1.139a37.6,37.6,0,0,1-10.589,3.157Z" transform="translate(-451.578 -294.46)" fill="#fff"/>
      <path id="Path_703" data-name="Path 703" d="M785.123,647.218q-.728.042-1.456.042c-.148.007-.3.007-.45.007A37.933,37.933,0,0,1,752.083,631c-.281.415-.562.83-.836,1.252a39.342,39.342,0,0,0,31.972,16.418c.2,0,.394,0,.591-.007.492-.007.977-.021,1.462-.042a39.133,39.133,0,0,0,20.848-7.313c-.225-.415-.45-.83-.682-1.245a37.672,37.672,0,0,1-20.314,7.151Z" transform="translate(-448.312 -298.946)" fill="#fff"/>
      <path id="Path_704" data-name="Path 704" d="M783.984,670.453c-.492.042-.984.07-1.477.091-.527.021-1.055.035-1.582.035a38.035,38.035,0,0,1-36.465-27.366c-.316.57-.633,1.132-.935,1.7a39.428,39.428,0,0,0,37.4,27.071c.527,0,1.055-.007,1.575-.035.5-.014.991-.042,1.484-.077A39.313,39.313,0,0,0,809.93,659.21c-.148-.52-.316-1.034-.485-1.554a37.913,37.913,0,0,1-25.461,12.8Z" transform="translate(-446.02 -302.571)" fill="#fff"/>
      <path id="Rectangle_1_-_Outline" data-name="Rectangle 1 - Outline" d="M651.636,274.111,455.751,249.137a12.719,12.719,0,0,0-1.591-.1,12.134,12.134,0,0,0-1.568.1,12,12,0,0,0-1.54.3,12.306,12.306,0,0,0-1.5.508,12.818,12.818,0,0,0-1.4.677,13.323,13.323,0,0,0-1.328.846,14.226,14.226,0,0,0-1.249,1.02,15.528,15.528,0,0,0-1.166,1.185,16.7,16.7,0,0,0-1.063,1.339q-.5.705-.942,1.467t-.817,1.59q-.377.825-.687,1.706-.322.911-.564,1.862t-.4,1.936q-.159.984-.244,2t-.085,2.056q0,1.039.085,2.072t.244,2.048q.164,1.02.406,2.02t.564,1.976q.311.944.687,1.844t.817,1.754q.44.852.942,1.656t1.063,1.552q.562.746,1.166,1.423t1.249,1.27q.645.6,1.328,1.115a16.62,16.62,0,0,0,1.4.955,15.3,15.3,0,0,0,1.5.807,14.119,14.119,0,0,0,1.54.61,13.347,13.347,0,0,0,1.568.414,12.989,12.989,0,0,0,1.591.216l195.885,14.329a4.961,4.961,0,0,0,1.693-.169,5.311,5.311,0,0,0,.817-.3,6.049,6.049,0,0,0,.793-.444,7.066,7.066,0,0,0,.733-.559,8.211,8.211,0,0,0,.691-.677,9.717,9.717,0,0,0,.646-.792q.312-.425.6-.906t.544-1q.257-.522.48-1.085t.415-1.163q.19-.6.347-1.237.165-.659.284-1.341t.2-1.385q.082-.7.123-1.424t.041-1.458q0-.736-.041-1.466t-.123-1.448q-.082-.719-.2-1.425T659.4,284q-.157-.669-.347-1.307t-.415-1.241q-.226-.611-.48-1.185t-.544-1.112q-.289-.539-.6-1.026t-.646-.923q-.334-.436-.691-.816a9.5,9.5,0,0,0-.733-.706,7.956,7.956,0,0,0-.793-.6,6.682,6.682,0,0,0-.817-.466,5.821,5.821,0,0,0-.838-.325,5.338,5.338,0,0,0-.857-.182" transform="translate(-355.794 -185.552)" fill="rgba(0,0,0,0.86)"/>
      <path id="Rectangle_3_-_Outline" data-name="Rectangle 3 - Outline" d="M651.636,362.822,455.751,358.13a12.594,12.594,0,0,0-3.16.322,12.893,12.893,0,0,0-1.54.461,13.645,13.645,0,0,0-1.5.66,14.572,14.572,0,0,0-1.4.819,15.407,15.407,0,0,0-1.328.986,16.583,16.583,0,0,0-1.249,1.149q-.605.616-1.166,1.31t-1.063,1.45q-.5.754-.942,1.564t-.817,1.674q-.377.864-.687,1.777-.322.945-.564,1.921t-.4,1.977q-.159,1-.244,2.025t-.085,2.064q0,1.04.085,2.064t.244,2.024q.164,1,.406,1.97t.564,1.918q.311.916.687,1.777t.817,1.669q.44.807.942,1.558t1.063,1.439q.562.691,1.166,1.3a16.419,16.419,0,0,0,1.249,1.142,15.254,15.254,0,0,0,1.328.978,14.433,14.433,0,0,0,1.4.81,13.557,13.557,0,0,0,1.5.651,12.836,12.836,0,0,0,1.54.451,12.519,12.519,0,0,0,1.568.254,12.659,12.659,0,0,0,1.591.052l195.883-5.96a5.1,5.1,0,0,0,.857-.1,5.325,5.325,0,0,0,.838-.243,5.922,5.922,0,0,0,.817-.386,6.942,6.942,0,0,0,.793-.526,8.2,8.2,0,0,0,.733-.635,9.579,9.579,0,0,0,.691-.748q.333-.4.646-.859t.6-.967q.288-.511.544-1.06t.48-1.134q.224-.6.415-1.211t.347-1.27q.165-.669.284-1.364t.2-1.406q.082-.713.123-1.439t.041-1.463q0-.73-.041-1.459t-.123-1.439q-.082-.713-.2-1.4t-.284-1.369q-.157-.653-.348-1.273t-.414-1.2q-.223-.584-.479-1.132t-.544-1.055q-.289-.509-.6-.965t-.646-.856a9.486,9.486,0,0,0-.691-.744,8.141,8.141,0,0,0-.733-.63,6.875,6.875,0,0,0-.793-.521,5.879,5.879,0,0,0-.818-.379,5.292,5.292,0,0,0-.838-.238,5.085,5.085,0,0,0-.857-.093" transform="translate(-355.794 -217.938)" fill="#e4e4e4"/>
      <path id="Rectangle_4_-_Outline" data-name="Rectangle 4 - Outline" d="M651.636,439.9,455.751,454.224a12.993,12.993,0,0,0-1.591.216,13.344,13.344,0,0,0-1.568.414,14.107,14.107,0,0,0-1.54.61,15.318,15.318,0,0,0-1.5.807,16.619,16.619,0,0,0-1.4.955q-.684.522-1.328,1.115t-1.249,1.27q-.605.675-1.166,1.423t-1.063,1.554q-.5.8-.942,1.656T441.58,466q-.377.9-.687,1.844-.322.975-.564,1.976t-.4,2.017q-.159,1.017-.244,2.049t-.085,2.072q0,1.04.085,2.056t.244,2q.164.987.406,1.937t.564,1.862q.311.882.687,1.706t.817,1.59q.44.764.942,1.467a16.734,16.734,0,0,0,1.063,1.339,15.529,15.529,0,0,0,1.166,1.185,14.22,14.22,0,0,0,1.249,1.02,13.329,13.329,0,0,0,1.328.846,12.816,12.816,0,0,0,1.4.677,12.3,12.3,0,0,0,1.5.508,11.993,11.993,0,0,0,1.54.3,12.144,12.144,0,0,0,1.568.1,12.72,12.72,0,0,0,1.591-.1l195.884-24.968a5.344,5.344,0,0,0,.857-.182,5.816,5.816,0,0,0,.838-.325,6.677,6.677,0,0,0,.817-.465,7.98,7.98,0,0,0,.793-.6,9.5,9.5,0,0,0,.733-.706q.352-.381.691-.816t.646-.923q.312-.488.6-1.026t.544-1.112q.257-.577.48-1.185t.415-1.248q.19-.638.347-1.307.165-.692.284-1.4t.2-1.425q.082-.719.123-1.448t.041-1.467q0-.733-.042-1.454t-.123-1.424q-.081-.705-.2-1.387t-.284-1.341q-.157-.637-.347-1.237t-.414-1.163q-.226-.563-.48-1.085t-.547-1q-.289-.482-.6-.906a9.717,9.717,0,0,0-.646-.792,8.189,8.189,0,0,0-.691-.677,7.043,7.043,0,0,0-.733-.559,6.041,6.041,0,0,0-.793-.444,5.312,5.312,0,0,0-.817-.3,4.961,4.961,0,0,0-1.693-.169" transform="translate(-355.794 -242.209)" fill="#e4e4e4"/>
      <path id="Path_5" data-name="Path 5" d="M588.716,402.659a9.824,9.824,0,0,0,17.78-8.043l37.964-78L626.288,305.6,593.5,388.451q-.188.073-.37.153t-.363.167q-.181.087-.359.183t-.354.2a9.836,9.836,0,0,0-3.34,13.5Z" transform="translate(-399.642 -202.346)" fill="#9e616a"/>
      <path id="Path_8" data-name="Path 8" d="M646.9,334.521l-26.97-6.913s.881-1.991,2.312-5.288,3.431-7.9,5.68-13.117,4.745-11.055,7.183-16.821,4.808-11.464,6.8-16.4,4.265-7.9,6.545-9.554a9,9,0,0,1,6.613-1.758,12.781,12.781,0,0,1,5.117,1.948,13.933,13.933,0,0,1,2.054,1.559l6.253,11.372Z" transform="translate(-409.329 -190.171)" fill="#ccc"/>
      <path id="Ellipse_3_-_Outline" data-name="Ellipse 3 - Outline" d="M342.957,355.241a17.515,17.515,0,0,0-1.947.254,17.814,17.814,0,0,0-1.919.471,18.536,18.536,0,0,0-1.884.689,19.668,19.668,0,0,0-1.843.906q-.878.493-1.716,1.073t-1.628,1.246q-.789.664-1.531,1.417t-1.43,1.587q-.688.835-1.3,1.729t-1.156,1.843q-.535.951-1,1.953t-.846,2.051q-.4,1.088-.695,2.2t-.5,2.24q-.2,1.129-.3,2.273t-.1,2.3q0,1.154.1,2.278t.3,2.213q.2,1.089.5,2.14t.692,2.058q.384.973.846,1.882a20.1,20.1,0,0,0,1,1.75,19.193,19.193,0,0,0,1.156,1.608,18.636,18.636,0,0,0,1.305,1.47,17.878,17.878,0,0,0,1.43,1.3,16.919,16.919,0,0,0,1.532,1.111,16.3,16.3,0,0,0,3.343,1.645,15.99,15.99,0,0,0,3.724.846,16.378,16.378,0,0,0,1.919.085,17.2,17.2,0,0,0,1.947-.138,17.828,17.828,0,0,0,1.937-.356,18.182,18.182,0,0,0,1.892-.568,18.947,18.947,0,0,0,1.841-.776,20.1,20.1,0,0,0,1.784-.98q.844-.527,1.644-1.129t1.55-1.285q.75-.682,1.448-1.439t1.342-1.588q.648-.83,1.22-1.711t1.072-1.807q.5-.927.924-1.9t.774-1.981q.362-1.046.634-2.11t.454-2.143q.181-1.08.273-2.171t.091-2.191q0-1.1-.091-2.174t-.273-2.116q-.181-1.041-.454-2.052t-.634-1.983q-.351-.941-.774-1.826t-.928-1.711a19.2,19.2,0,0,0-2.288-3.058,18.123,18.123,0,0,0-1.339-1.32,17.145,17.145,0,0,0-1.448-1.149,16.564,16.564,0,0,0-1.55-.974,16.385,16.385,0,0,0-1.647-.8,15.977,15.977,0,0,0-3.624-1.028,16.218,16.218,0,0,0-1.892-.189,16.972,16.972,0,0,0-1.937.032" transform="translate(-321.229 -217.068)" fill="#e4e4e4"/>
      <path id="Ellipse_3_-_Outline-2" data-name="Ellipse 3 - Outline" d="M342.957,468.394a17.537,17.537,0,0,0-1.947.254,17.816,17.816,0,0,0-1.919.471,18.525,18.525,0,0,0-1.884.689,19.657,19.657,0,0,0-1.843.906q-.878.493-1.716,1.073t-1.628,1.246q-.789.664-1.531,1.417t-1.43,1.587q-.688.835-1.3,1.729t-1.156,1.843q-.535.951-1,1.953t-.846,2.051q-.4,1.088-.695,2.2t-.5,2.24q-.2,1.129-.3,2.273t-.1,2.3q0,1.154.1,2.278t.3,2.213q.2,1.089.5,2.14t.692,2.058q.384.972.846,1.882a20.1,20.1,0,0,0,1,1.75,19.2,19.2,0,0,0,1.156,1.608,18.642,18.642,0,0,0,1.305,1.47,17.878,17.878,0,0,0,1.43,1.3,16.91,16.91,0,0,0,1.532,1.111,16.309,16.309,0,0,0,3.343,1.645,15.991,15.991,0,0,0,3.724.846,16.364,16.364,0,0,0,1.919.085,17.233,17.233,0,0,0,1.947-.138,17.859,17.859,0,0,0,1.937-.356,18.2,18.2,0,0,0,1.892-.568,18.932,18.932,0,0,0,1.841-.776,20.123,20.123,0,0,0,1.784-.98q.844-.527,1.644-1.129t1.55-1.285q.75-.682,1.448-1.439t1.342-1.588q.648-.83,1.22-1.711t1.072-1.807q.5-.927.924-1.9t.774-1.981q.362-1.046.634-2.11t.454-2.143q.181-1.08.273-2.171t.091-2.191q0-1.1-.091-2.174t-.273-2.116q-.181-1.041-.454-2.052t-.634-1.983q-.351-.941-.774-1.826t-.928-1.711a19.2,19.2,0,0,0-2.288-3.058,18.141,18.141,0,0,0-1.339-1.319,17.166,17.166,0,0,0-1.448-1.149,16.581,16.581,0,0,0-1.55-.974,16.385,16.385,0,0,0-1.647-.8,15.976,15.976,0,0,0-3.624-1.028,16.219,16.219,0,0,0-1.892-.189,16.971,16.971,0,0,0-1.937.032" transform="translate(-321.229 -250.66)" fill="#e4e4e4"/>
      <path id="Ellipse_2_-_Outline" data-name="Ellipse 2 - Outline" d="M342.145,231.784a17.114,17.114,0,0,0-1.947.063,16.86,16.86,0,0,0-1.919.284,17.041,17.041,0,0,0-1.884.508,17.653,17.653,0,0,0-1.843.727,18.349,18.349,0,0,0-1.716.9,18.833,18.833,0,0,0-1.628,1.088,19.664,19.664,0,0,0-1.532,1.27q-.746.685-1.433,1.452t-1.3,1.6q-.616.835-1.156,1.732t-1,1.861q-.465.953-.846,1.969-.394,1.047-.692,2.129t-.5,2.191q-.2,1.113-.3,2.245t-.1,2.285q0,1.152.1,2.285t.3,2.242q.2,1.109.5,2.188t.692,2.124q.384,1.01.846,1.964t1.005,1.844q.54.894,1.156,1.724t1.3,1.595q.689.762,1.43,1.439a19.481,19.481,0,0,0,1.524,1.265,18.66,18.66,0,0,0,1.628,1.078,18.2,18.2,0,0,0,1.716.892,17.532,17.532,0,0,0,1.843.715,16.862,16.862,0,0,0,3.8.762,17.218,17.218,0,0,0,3.882-.118,16.991,16.991,0,0,0,1.892-.384,17.226,17.226,0,0,0,1.841-.6,17.908,17.908,0,0,0,1.784-.807,18.626,18.626,0,0,0,1.647-.966,19.147,19.147,0,0,0,1.55-1.135q.75-.609,1.448-1.3t1.342-1.457q.648-.769,1.22-1.593t1.072-1.7q.5-.879.924-1.807t.774-1.9q.362-1.011.634-2.048t.454-2.1q.181-1.066.273-2.148t.091-2.183q0-1.1-.091-2.182t-.273-2.142q-.181-1.061-.454-2.1t-.634-2.045q-.351-.974-.774-1.9t-.928-1.8q-.5-.87-1.072-1.693t-1.216-1.584q-.64-.761-1.339-1.446t-1.448-1.289a18.957,18.957,0,0,0-1.549-1.127,18.466,18.466,0,0,0-1.647-.956,17.764,17.764,0,0,0-1.784-.8,17.133,17.133,0,0,0-1.841-.586,16.921,16.921,0,0,0-1.892-.372,17.137,17.137,0,0,0-1.937-.156m0-2.118a18.807,18.807,0,0,1,8.156,2.111,21.4,21.4,0,0,1,6.541,5.284,24.913,24.913,0,0,1,4.35,7.639,27.861,27.861,0,0,1,0,18.518,25.12,25.12,0,0,1-4.35,7.667,21.606,21.606,0,0,1-6.542,5.323,18.9,18.9,0,0,1-8.156,2.164,18.646,18.646,0,0,1-8.322-1.659,21.041,21.041,0,0,1-6.923-5.1,24.646,24.646,0,0,1-4.733-7.816,27.834,27.834,0,0,1,0-19.422,24.856,24.856,0,0,1,4.733-7.846,21.236,21.236,0,0,1,6.923-5.149,18.715,18.715,0,0,1,8.327-1.712Z" transform="translate(-320.413 -179.801)"/>
      <path id="Path_1" data-name="Path 1" d="M348.5,259.9l-6.667-13.889,1.583-1.031,5.491,11.41,23.058-27.1,1.4,1.487Z" transform="translate(-326.772 -179.69)"/>
      <g id="Group_1" data-name="Group 1" transform="translate(231.185 354.358)">
        <path id="Path_1-2" data-name="Path 1-2" d="M689.435,662.784l-16.5-.064,5.322,43.127,11.183.056Z" transform="translate(-656.248 -662.719)" fill="#9e616a"/>
        <path id="Path_2" data-name="Path 2" d="M685.243,733.4l-36.038-.19v-.455a14.138,14.138,0,0,1,.269-2.755A13.781,13.781,0,0,1,651.552,725a14.149,14.149,0,0,1,3.9-3.878,13.787,13.787,0,0,1,5.017-2.056,14.134,14.134,0,0,1,2.757-.254h0l22.02.108Z" transform="translate(-649.205 -679.371)" fill="#2f2e41"/>
      </g>
      <g id="Group_2" data-name="Group 2" transform="translate(178.426 354.153)">
        <path id="Path_3" data-name="Path 3" d="M614.3,662.492l-16.457-.064,5.305,43.068,11.152.056Z" transform="translate(-581.197 -662.427)" fill="#9e616a"/>
        <path id="Path_4" data-name="Path 4" d="M610.114,733.015l-35.943-.189v-.455a14.143,14.143,0,0,1,.269-2.751,13.775,13.775,0,0,1,2.072-5,14.109,14.109,0,0,1,3.888-3.875,13.738,13.738,0,0,1,5-2.051,14.084,14.084,0,0,1,2.75-.254h0l21.96.107Z" transform="translate(-574.171 -679.056)" fill="#2f2e41"/>
      </g>
      <path id="Path_6" data-name="Path 6" d="M608.566,411.829,580.891,515.108l10.13,99,22.429.619-4.884-89.392,27.981-44.61,6.069,134.611,20.346-1.439L674.28,498.159a131.434,131.434,0,0,0,8.4-28.142,125.311,125.311,0,0,0,1.988-22.992,107.536,107.536,0,0,0-1.193-15.5,56.736,56.736,0,0,0-1.118-5.684l-8.252-8.365Z" transform="translate(-397.74 -233.88)" fill="#2f2e41"/>
      <path id="Path_705" data-name="Path 705" d="M654.911,382.393c-4.654,0-9.021-.149-12.981-.444a97.476,97.476,0,0,1-12.048-1.586,42.9,42.9,0,0,1-9.826-3.094,15.768,15.768,0,0,1-6.374-5.03l-.189-.274,7.564-49.229,8.157-55.352a15.086,15.086,0,0,1,15.392-12.891l25.547.783a14.318,14.318,0,0,1,13.853,15.182l-3.354,55.048,12.37,54.3-.876.122c-.352.047-1.71.226-3.837.465-2.78.312-5.618.594-8.436.837-3.987.344-7.888.614-11.6.8C663.579,382.273,659.073,382.389,654.911,382.393Z" transform="translate(-407.418 -187.171)" fill="#61a229"/>
      <path id="Path_9" data-name="Path 9" d="M650.505,216.291h-.02a4.081,4.081,0,0,1-4.079-4.084V189.431a30.438,30.438,0,0,1,2.4-11.879,30.929,30.929,0,0,1,16.251-16.335,30.456,30.456,0,0,1,42.461,27.942v22.811a4.089,4.089,0,0,1-.323,1.6,4.155,4.155,0,0,1-2.189,2.194,4.1,4.1,0,0,1-1.6.329l-52.907.2Z" transform="translate(-417.189 -158.75)" fill="#2f2e41"/>
      <path id="Ellipse_1" data-name="Ellipse 1" d="M691.729,186.39a22.452,22.452,0,0,1-25.962,32.341,22.19,22.19,0,0,1-13.348-10.693A22.451,22.451,0,0,1,678.364,175.7a22.19,22.19,0,0,1,13.365,10.686Z" transform="translate(-418.158 -163.52)" fill="#9e616a"/>
      <path id="Path_10" data-name="Path 10" d="M636.133,194.769a24.078,24.078,0,0,1,1.9-9.4,24.451,24.451,0,0,1,12.851-12.916,24.09,24.09,0,0,1,9.395-1.947l4.559-.023h.154a24.038,24.038,0,0,1,24.023,24.052V195l-9.644.039-3.289-9.187-.658,9.2-4.981.022-1.658-4.635-.333,4.641-32.315.145Z" transform="translate(-414.139 -162.235)" fill="#2f2e41"/>
      <path id="Path_11" data-name="Path 11" d="M577.523,273.039a10.58,10.58,0,0,0-4.068,1.994,10.3,10.3,0,0,0-2.362,2.649,10.75,10.75,0,0,0-1.554,6.706,10.292,10.292,0,0,0,.95,3.415,10.469,10.469,0,0,0,15.034,4.409q.139-.089.275-.182t.267-.188q.132-.1.259-.2t.253-.2l53.215,18.94a8.02,8.02,0,0,0,9.2-2.873l12.616-17.468-15.253-10.271-8,9.093-48.7-9.688q-.08-.189-.165-.377t-.178-.373q-.094-.185-.195-.369t-.212-.364a10.461,10.461,0,0,0-11.376-4.656Z" transform="translate(-394.355 -192.59)" fill="#9e616a"/>
      <path id="Path_12" data-name="Path 12" d="M667.662,277.852c1.592-1.987,3.817-4.566,6.079-7.124s4.556-5.094,6.287-6.991,2.9-3.154,2.9-3.154a12.54,12.54,0,0,1,22.781,9.251,12.359,12.359,0,0,1-1.87,4.583s-1.736,2.272-4.357,5.663-6.127,7.905-9.664,12.393-7.108,8.952-9.862,12.248-4.691,5.424-4.964,5.242l-9.6-28.551C665.111,281.229,666.07,279.839,667.662,277.852Z" transform="translate(-422.809 -187.311)" fill="#61a229"/>
      <path id="Path_13" data-name="Path 13" d="M676.717,223.271a4.016,4.016,0,0,0,.169,2.2,4.108,4.108,0,0,0,.538,1.011,4.155,4.155,0,0,0,.667.717,4.074,4.074,0,0,0,2.648.962q.091,0,.181-.005t.181-.013q.091-.008.182-.02t.182-.029l3.423-.622,4.714-10.072v9.226l15.562-2.8v-39.15l-26.089.125.645.749a17.944,17.944,0,0,1,4.063,8.83,29.251,29.251,0,0,1-.188,9.949,52.749,52.749,0,0,1-2.778,9.717,77.734,77.734,0,0,1-3.711,8.145A4.1,4.1,0,0,0,676.717,223.271Z" transform="translate(-426.163 -166.448)" fill="#2f2e41"/>
      <path id="Path_706" data-name="Path 706" d="M419.4,740.535H741.875a.846.846,0,0,0,0-1.693H419.4a.846.846,0,0,0,0,1.693Z" transform="translate(-349.547 -330.959)" fill="#cacaca"/>
    </g>
    <g id="Group_3494" data-name="Group 3494">
      <circle id="Ellipse_14" data-name="Ellipse 14" cx="195.677" cy="195.677" r="195.677" transform="translate(930.353 374.323)" fill="rgba(219,219,219,0.33)"/>
      <path id="Path_700" data-name="Path 700" d="M803.005,637.863,785,654.443l14.313-24.016c-11.276-20.449-29.718-38.121-29.718-38.121s-38.261,36.657-38.261,65.472,17.13,38.876,38.261,38.876,38.261-10.061,38.261-38.876C807.85,651.365,805.952,644.563,803.005,637.863Z" transform="translate(456.601 111.754)" fill="#97ce6f"/>
    </g>
    <text id="Please_select_unit_from_the_drop-down_menu_to_create_form" data-name="Please select unit from the drop-down menu to create form" transform="translate(820 885)" fill="rgba(112,112,112,0.6)" font-size="20" font-family="Montserrat-Regular, Montserrat"><tspan x="0" y="0">Please select unit from the drop-down menu to create form</tspan></text>
  </g>
</svg>
